<?xml version="1.0" standalone="no"?>
<!DOCTYPE svg PUBLIC "-//W3C//DTD SVG 20010904//EN"
 "http://www.w3.org/TR/2001/REC-SVG-20010904/DTD/svg10.dtd">
<svg version="1.0" xmlns="http://www.w3.org/2000/svg"
 width="512.000000pt" height="512.000000pt" viewBox="0 0 512.000000 512.000000"
 preserveAspectRatio="xMidYMid meet">
<metadata>
Created by potrace 1.15, written by Peter Selinger 2001-2017
</metadata>
<g transform="translate(0.000000,512.000000) scale(0.100000,-0.100000)"
fill="#000000" stroke="none">
<path d="M2522 5100 c-56 -34 -62 -63 -62 -305 0 -233 5 -259 54 -304 36 -34
118 -40 163 -12 65 41 68 52 71 295 4 250 -4 292 -62 327 -42 26 -121 25 -164
-1z"/>
<path d="M3673 5073 c-14 -16 -94 -127 -176 -247 -140 -204 -151 -223 -151
-265 0 -59 24 -94 80 -122 71 -34 146 -13 179 50 8 16 67 105 131 196 63 92
124 181 135 198 23 39 24 84 3 137 -23 56 -60 80 -124 80 -43 0 -55 -4 -77
-27z"/>
<path d="M1288 5055 c-42 -28 -63 -80 -55 -131 6 -35 292 -464 331 -496 51
-41 136 -28 185 27 26 30 31 44 31 85 0 44 -7 58 -74 157 -41 59 -113 165
-161 234 -49 73 -96 131 -111 137 -43 20 -106 15 -146 -13z"/>
<path d="M1470 4253 c-8 -3 -25 -15 -37 -26 -22 -20 -23 -25 -23 -232 0 -208
0 -212 23 -233 l23 -22 1133 0 1132 0 24 25 c25 24 25 25 25 229 0 202 0 205
-24 233 l-24 28 -1119 2 c-615 1 -1125 -1 -1133 -4z"/>
<path d="M1490 3574 c0 -4 95 -178 210 -389 l210 -382 0 -1366 0 -1366 31 -36
31 -35 612 0 c671 0 638 -3 671 60 13 25 15 202 15 1389 l0 1361 191 346 c104
191 199 364 210 386 l19 38 -1100 0 c-605 0 -1100 -3 -1100 -6z m1180 -1226
c75 -51 75 -50 78 -339 3 -254 2 -260 -20 -300 -26 -47 -68 -76 -123 -84 -51
-8 -121 26 -152 74 -22 33 -23 41 -23 293 0 296 3 311 74 353 54 33 120 34
166 3z"/>
</g>
</svg>
